<svg xmlns="http://www.w3.org/2000/svg" version="1.1" xlink="http://www.w3.org/1999/xlink" xmlns:svgjs="http://svgjs.com/svgjs" width="100%" height="100%" preserveAspectRatio="xMidYMid meet" viewBox="4.613914248086841e-15 4.613914248086841e-15 299.99713134765625 72.6327896118164" overflow="visible"><defs id="SvgjsDefs30373"></defs><g id="SvgjsG30374" transform="scale(0.6493506493506493)" opacity="1"><g id="SvgjsG30375" class="oi0yfcg0l" transform="translate(7.105427357601002e-15, 7.105427357601002e-15) scale(1.1185448423592594)" light-content="false" non-strokable="false" fill="#0e7490"><path d="M24 0h76v76c0 13.255-10.745 24-24 24H0V24C0 10.745 10.745 0 24 0z"></path></g><g id="SvgjsG30376" class="5ahRlJAtDU" transform="translate(11.185448423592561, 11.18544842359259) scale(0.8948358738874077)" light-content="true" non-strokable="false" fill="#ffffff"><path d="M53.333 10v6.692c16.85 1.68 30 15.951 30 33.308 0 17.354-13.15 31.624-30 33.304V90C73.864 88.298 90 71.052 90 50c0-21.055-16.136-38.294-36.667-40zm-6.666 73.304c-16.843-1.68-30-15.95-30-33.304 0-17.356 13.157-31.628 30-33.308V10C26.14 11.706 10 28.945 10 50c0 21.052 16.14 38.298 36.667 40v-6.696z"></path><path d="M30.3 46.667C31.888 37.21 40.091 30 50 30s18.112 7.21 19.7 16.667h6.735C74.795 33.516 63.601 23.333 50 23.333c-13.594 0-24.792 10.183-26.436 23.334H30.3zm39.4 6.666C68.112 62.786 59.909 70 50 70s-18.112-7.214-19.7-16.667h-6.735C25.208 66.484 36.406 76.667 50 76.667c13.601 0 24.795-10.183 26.436-23.334H69.7z"></path><path d="M50 36.667c-7.363 0-13.333 5.97-13.333 13.333S42.637 63.333 50 63.333c7.366 0 13.333-5.97 13.333-13.333S57.366 36.667 50 36.667zm0 20a6.667 6.667 0 1 1 0-13.334 6.667 6.667 0 0 1 0 13.334z"></path></g><g id="SvgjsG30377" class="text" transform="translate(304.5755294035457, 77.42380716246666) scale(1)" light-content="false" fill="#0e7490"><path d="M-134.75 0.97C-131.36 0.97 -128.36 0.54 -125.75 -0.32C-123.15 -1.18 -120.94 -2.41 -119.14 -3.99C-117.34 -5.58 -115.96 -7.46 -115.02 -9.64C-114.08 -11.82 -113.61 -14.26 -113.61 -16.94C-113.61 -21.62 -114.97 -25.27 -117.69 -27.88C-120.4 -30.49 -124.61 -32.3 -130.31 -33.32L-135.56 -34.29C-138.3 -34.78 -140.29 -35.53 -141.53 -36.55C-142.77 -37.57 -143.38 -39.16 -143.38 -41.31C-143.38 -43.41 -142.62 -45.04 -141.08 -46.19C-139.55 -47.35 -137.25 -47.93 -134.19 -47.93C-131.17 -47.93 -128.67 -47.39 -126.68 -46.32C-124.69 -45.24 -123 -43.84 -121.6 -42.12L-114.34 -48.98C-116.6 -51.72 -119.31 -53.79 -122.49 -55.19C-125.66 -56.59 -129.37 -57.29 -133.62 -57.29C-136.79 -57.29 -139.63 -56.9 -142.13 -56.12C-144.64 -55.34 -146.77 -54.22 -148.55 -52.77C-150.32 -51.32 -151.68 -49.57 -152.62 -47.53C-153.56 -45.48 -154.04 -43.2 -154.04 -40.67C-154.04 -31.52 -148.41 -26.06 -137.17 -24.29L-131.85 -23.48C-128.89 -22.94 -126.87 -22.08 -125.79 -20.9C-124.72 -19.72 -124.18 -18.18 -124.18 -16.3C-124.18 -13.88 -125.01 -11.96 -126.68 -10.53C-128.35 -9.1 -130.82 -8.39 -134.11 -8.39C-137.01 -8.39 -139.66 -8.98 -142.05 -10.17C-144.45 -11.35 -146.61 -13.07 -148.55 -15.33L-155.73 -8.39C-153.31 -5.59 -150.42 -3.34 -147.06 -1.61C-143.69 0.11 -139.59 0.97 -134.75 0.97Z M-68.83 -23.8L-68.83 0L-58.18 0L-58.18 -56.32L-68.83 -56.32L-68.83 -33.24L-92.31 -33.24L-92.31 -56.32L-102.96 -56.32L-102.96 0L-92.31 0L-92.31 -23.8Z M-22.84 0.97C-19.12 0.97 -15.76 0.35 -12.75 -0.89C-9.74 -2.12 -7.15 -3.98 -5 -6.46C-2.85 -8.93 -1.2 -11.97 -0.04 -15.57C1.12 -19.18 1.69 -23.37 1.69 -28.16C1.69 -32.89 1.12 -37.08 -0.04 -40.71C-1.2 -44.34 -2.85 -47.39 -5 -49.87C-7.15 -52.34 -9.74 -54.2 -12.75 -55.43C-15.76 -56.67 -19.12 -57.29 -22.84 -57.29C-26.55 -57.29 -29.91 -56.67 -32.92 -55.43C-35.93 -54.2 -38.5 -52.34 -40.63 -49.87C-42.75 -47.39 -44.41 -44.34 -45.59 -40.71C-46.77 -37.08 -47.36 -32.89 -47.36 -28.16C-47.36 -23.37 -46.77 -19.18 -45.59 -15.57C-44.41 -11.97 -42.75 -8.93 -40.63 -6.46C-38.5 -3.98 -35.93 -2.12 -32.92 -0.89C-29.91 0.35 -26.55 0.97 -22.84 0.97ZM-22.84 -8.47C-26.87 -8.47 -30.08 -9.82 -32.48 -12.51C-34.87 -15.2 -36.07 -18.96 -36.07 -23.8L-36.07 -32.52C-36.07 -37.36 -34.87 -41.12 -32.48 -43.81C-30.08 -46.5 -26.87 -47.85 -22.84 -47.85C-18.8 -47.85 -15.59 -46.5 -13.19 -43.81C-10.8 -41.12 -9.6 -37.36 -9.6 -32.52L-9.6 -23.8C-9.6 -18.96 -10.8 -15.2 -13.19 -12.51C-15.59 -9.82 -18.8 -8.47 -22.84 -8.47Z M12.51 0L23.16 0L23.16 -21.46L37.84 -21.46C40.43 -21.46 42.75 -21.88 44.82 -22.71C46.89 -23.55 48.66 -24.73 50.11 -26.26C51.56 -27.8 52.66 -29.63 53.42 -31.75C54.17 -33.88 54.55 -36.26 54.55 -38.89C54.55 -41.47 54.17 -43.84 53.42 -45.99C52.66 -48.14 51.56 -49.99 50.11 -51.52C48.66 -53.05 46.89 -54.24 44.82 -55.07C42.75 -55.9 40.43 -56.32 37.84 -56.32L12.51 -56.32ZM23.16 -30.66L23.16 -47.04L36.87 -47.04C38.92 -47.04 40.53 -46.5 41.72 -45.43C42.9 -44.35 43.49 -42.79 43.49 -40.75L43.49 -37.04C43.49 -34.99 42.9 -33.42 41.72 -32.32C40.53 -31.21 38.92 -30.66 36.87 -30.66Z M64.23 0L101.35 0L101.35 -9.44L74.88 -9.44L74.88 -23.8L98.28 -23.8L98.28 -33.24L74.88 -33.24L74.88 -46.88L101.35 -46.88L101.35 -56.32L64.23 -56.32Z M157.42 0L139.03 -28.89L156.62 -56.32L145 -56.32L132.89 -36.31L132.65 -36.31L120.71 -56.32L108.28 -56.32L125.71 -28.89L107.48 0L119.1 0L131.85 -21.62L132.09 -21.62L145 0Z"></path></g></g></svg>